<svg width="500" height="500" viewBox="0 0 500 500" fill="none" xmlns="http://www.w3.org/2000/svg">
<path fill-rule="evenodd" clip-rule="evenodd" d="M263.155 23.5724C260.294 23.9254 259.947 24.2674 260.529 26.1624C261.417 29.0544 261.194 28.9464 264.791 28.2274C267.273 27.7314 267.951 27.0864 267.951 25.2204C267.951 23.9144 267.614 22.9174 267.201 23.0054C266.788 23.0934 264.968 23.3484 263.155 23.5724ZM263.803 31.5514L261.155 31.9584L261.303 50.3994C261.451 68.8124 261.454 68.8404 263.701 68.8434C264.939 68.8444 266.89 67.9064 268.038 66.7584C269.962 64.8344 270.077 63.9174 269.516 55.0084C268.361 36.6744 267.778 30.8454 267.116 30.9954C266.75 31.0774 265.259 31.3284 263.803 31.5514ZM278.253 31.8104C274 33.6134 272.749 38.0494 273.116 50.0194C273.431 60.3244 273.597 61.0754 275.951 62.8824C279.755 65.8014 286.038 65.4854 289.315 62.2094C291.653 59.8704 291.974 58.7114 292.152 51.9594C292.482 39.4044 292.077 36.5494 289.609 34.0644C287.061 31.4984 281.563 30.4074 278.253 31.8104ZM297.672 35.1764C297.358 37.1144 296.531 43.8894 295.835 50.2334C294.649 61.0514 294.685 61.8934 296.416 63.8064C298.691 66.3214 303.479 66.4844 304.871 64.0954C305.781 62.5324 305.893 62.5864 305.921 64.5954C305.946 66.4924 306.498 66.8454 309.432 66.8454C313.513 66.8454 313.223 67.6714 315.413 49.8024C317.478 32.9584 317.583 33.8454 313.53 33.8454C309.574 33.8454 309.683 33.5474 307.892 49.3454C306.654 60.2634 306.481 60.8454 304.465 60.8454C302.393 60.8454 302.293 58.4064 303.844 45.5864C304.626 39.1184 305.05 33.6104 304.786 33.3464C304.521 33.0824 302.941 32.5934 301.274 32.2604C298.428 31.6904 298.209 31.8684 297.672 35.1764ZM228.406 37.3004C225.499 40.2064 225.392 42.3214 227.552 54.0914C229.549 64.9694 231.539 67.8454 237.073 67.8454C245.009 67.8454 248.647 63.7884 247.236 56.5134C246.79 54.2124 246.289 53.7884 244.569 54.2494C243.404 54.5624 241.832 54.8244 241.076 54.8314C240.099 54.8414 239.866 55.6704 240.272 57.6994C240.8 60.3424 239.597 62.8454 237.798 62.8454C236.973 62.8454 234.965 56.3534 234.957 53.6564C234.953 52.4304 236.137 51.7904 239.286 51.3184C246.177 50.2844 246.523 49.8334 245.11 43.7154C243.432 36.4444 241.745 34.8454 235.751 34.8454C231.892 34.8454 230.342 35.3634 228.406 37.3004ZM319.119 50.9284C317.303 59.7924 315.993 67.2204 316.207 67.4344C316.421 67.6494 318.005 68.1064 319.726 68.4504C323.288 69.1624 322.751 70.3664 325.955 54.5074C327.048 49.0964 328.196 44.2584 328.506 43.7574C328.815 43.2554 330.182 42.8454 331.541 42.8454C334.098 42.8454 335.367 41.1094 334.786 38.4094C334.49 37.0364 334.132 37.0234 331.701 38.2914C329.153 39.6214 328.951 39.5844 328.951 37.7864C328.951 36.5394 328.265 35.8454 327.033 35.8454C325.978 35.8454 324.509 35.6124 323.768 35.3284C322.749 34.9374 321.618 38.7334 319.119 50.9284ZM284.951 47.1454C284.951 57.7994 283.956 60.9244 281.275 58.6994C280.373 57.9504 279.955 55.0114 279.965 49.4734C279.982 39.4374 280.619 36.8454 283.068 36.8454C284.79 36.8454 284.951 37.7244 284.951 47.1454ZM215.337 38.9294L212.223 39.8324L215.565 51.5884C219.21 64.4164 219.497 66.3894 217.864 67.3994C215.639 68.7744 215.171 67.5854 208.917 44.6704C207.954 41.1394 207.792 41.0304 204.797 41.8894C203.082 42.3814 201.499 42.9644 201.277 43.1854C200.613 43.8504 207.983 69.1684 209.547 71.5954C210.506 73.0844 211.985 73.8454 213.917 73.8454C215.809 73.8454 217.396 73.0534 218.422 71.5954C219.557 69.9844 220.224 69.6914 220.769 70.5654C221.795 72.2064 227.451 70.6894 227.451 68.7734C227.451 66.5984 219.522 37.8334 218.951 37.9364C218.676 37.9854 217.05 38.4324 215.337 38.9294ZM237.515 42.5954C237.847 44.1084 238.277 45.8704 238.471 46.5124C238.801 47.6024 236.905 48.8454 234.915 48.8454C233.788 48.8454 232.548 42.3064 233.411 40.9104C234.647 38.9104 236.912 39.8404 237.515 42.5954ZM191.701 46.1444C190.189 46.7424 188.951 47.5944 188.951 48.0384C188.951 48.4824 187.796 48.8454 186.385 48.8454C181.757 48.8454 179.951 50.5374 179.951 54.8734C179.951 59.0764 186.017 75.4704 188.881 79.0074C191.107 81.7564 195.804 81.7454 198.038 78.9864C199.735 76.8904 199.757 76.9044 201.379 80.9564C202.66 84.1594 203.381 84.8834 204.731 84.3274C205.677 83.9374 207.264 83.3854 208.258 83.1004C209.429 82.7644 209.849 82.0134 209.452 80.9644C201.893 60.9874 195.423 44.8684 194.996 44.9514C194.696 45.0104 193.213 45.5474 191.701 46.1444ZM190.693 54.0954C191.236 54.7834 193.159 59.3044 194.967 64.1444C197.457 70.8114 197.973 73.2234 197.095 74.1014C196.217 74.9794 195.604 74.9064 194.564 73.8024C192.566 71.6814 186.738 55.8424 187.36 54.2224C188.018 52.5084 189.398 52.4554 190.693 54.0954ZM162.194 58.9644C158.434 61.3724 157.399 64.2644 158.893 68.1924L159.946 70.9614L162.972 69.1734C164.988 67.9834 165.907 66.7194 165.725 65.3904C165.297 62.2734 168.701 62.2024 170.112 65.2994C171.182 67.6474 170.976 68.2244 167.956 71.3404C164.101 75.3174 163.727 78.4674 166.434 84.1704C169.886 91.4424 175.856 92.6784 178.393 86.6464C179.385 84.2864 179.793 83.9914 180.286 85.2764C180.861 86.7754 181.174 86.7814 183.933 85.3544C185.593 84.4964 186.951 83.5734 186.951 83.3034C186.951 82.1654 175.602 60.1954 174.188 58.5954C172.074 56.2034 166.224 56.3834 162.194 58.9644ZM134.267 67.9814L131.084 69.9514L141.634 86.6484C147.437 95.8314 152.245 103.41 152.318 103.49C152.391 103.57 153.853 102.667 155.568 101.483L158.684 99.3324L151.765 88.4814C145.099 78.0284 143.841 74.3454 146.936 74.3454C148.078 74.3454 156.67 86.6314 161.878 95.7134C162.523 96.8374 163.177 96.7584 165.557 95.2654C167.149 94.2674 168.577 93.3754 168.732 93.2844C169.279 92.9594 155.856 72.3014 153.339 69.5954C151.933 68.0824 150.02 66.8454 149.089 66.8454C146.353 66.8454 142.952 69.7814 142.942 72.1524C142.934 73.8774 142.389 73.4394 140.385 70.0954C138.984 67.7574 137.751 65.8824 137.644 65.9284C137.538 65.9734 136.018 66.8974 134.267 67.9814ZM175.574 76.3324C177.948 81.5184 178.042 83.8454 175.877 83.8454C173.176 83.8454 169.609 73.5204 171.618 71.5124C172.745 70.3844 172.983 70.6744 175.574 76.3324ZM122.623 84.0174C116.402 88.6554 117.421 94.0804 126.628 105.345C132.831 112.935 135.642 114.425 140.155 112.516C148.149 109.133 149.666 102.888 144.167 95.9964L142.293 93.6474L139.467 96.0774L136.642 98.5084L138.914 101.581C141.191 104.661 141.012 106.845 138.483 106.845C137.741 106.845 134.89 103.991 132.149 100.502C124.86 91.2274 124.264 90.1324 125.719 88.6774C126.677 87.7194 127.553 88.0484 129.815 90.2154L132.692 92.9714L135.432 90.6154L138.171 88.2594L135.472 85.0524C132.18 81.1404 127.038 80.7254 122.623 84.0174ZM95.9728 107.821C92.9348 111.074 91.8888 114.469 93.0118 117.436C93.4088 118.486 97.3307 122.833 101.728 127.095C108.602 133.76 110.211 134.845 113.218 134.845C115.83 134.845 117.502 134.039 119.832 131.655C123.903 127.491 124.027 123.08 120.193 118.789L117.434 115.702L115.099 118.187L112.764 120.673L115.051 123.766C116.695 125.991 117.033 127.163 116.251 127.945C114.911 129.285 112.432 128.078 109.01 124.419L106.569 121.81L110.804 117.495L115.038 113.18L110.517 109.013C104.724 103.673 100.195 103.302 95.9728 107.821ZM104.451 113.282C107.317 115.6 107.373 115.788 105.695 117.498C104.009 119.214 103.832 119.18 101.304 116.653C99.6887 115.037 98.9058 113.405 99.2788 112.432C100.1 110.294 100.925 110.43 104.451 113.282ZM81.9588 123.336C81.2778 124.156 80.9158 126.153 81.1538 127.773C81.5228 130.291 81.3398 130.588 79.8948 129.815C78.1848 128.9 75.5158 130.849 74.7798 133.551C74.5988 134.215 80.0758 139.248 86.9508 144.736L99.4508 154.714L101.701 152.605C102.939 151.445 103.951 150.199 103.951 149.835C103.951 149.471 99.1928 145.247 93.3778 140.449C84.7298 133.313 83.0198 131.467 83.9828 130.306C85.5008 128.478 86.2897 128.924 97.8357 138.146L107.222 145.642L109.524 142.993C112.222 139.888 113.089 140.976 99.1498 129.975C88.5258 121.591 84.6488 120.094 81.9588 123.336ZM62.2388 137.097C60.1888 139.982 60.1558 140.278 61.7458 141.486C62.6838 142.198 63.6908 142.796 63.9848 142.813C64.6348 142.852 68.2888 136.795 67.7978 136.493C67.6068 136.375 66.7728 135.767 65.9438 135.141C64.7278 134.223 64.0108 134.601 62.2388 137.097ZM68.6458 141.783L66.9108 144.722L79.3128 153.27C86.1348 157.971 92.3768 162.071 93.1858 162.382C94.4238 162.857 97.9508 159.196 97.9508 157.436C97.9508 156.982 71.3598 138.845 70.6948 138.845C70.5228 138.845 69.6008 140.167 68.6458 141.783ZM61.2498 154.095C56.2748 159.558 55.7478 163.733 59.5548 167.54L62.1587 170.144L64.1428 167.011C65.9868 164.098 66.0108 163.762 64.4748 162.226C62.0478 159.8 64.0858 158.13 67.5478 159.707C70.0588 160.851 70.1638 161.183 69.5268 165.982C69.0238 169.779 69.2468 171.648 70.4178 173.434C72.1678 176.106 78.8298 179.845 81.8398 179.845C84.9048 179.845 87.1908 176.932 86.7078 173.641C86.4028 171.564 86.6498 170.899 87.5908 171.26C88.9298 171.774 91.9508 168.306 91.9508 166.255C91.9508 164.434 69.4258 151.845 66.1688 151.845C64.4668 151.845 62.4658 152.761 61.2498 154.095ZM82.1768 168.644C84.1908 170.357 83.6288 171.845 80.9688 171.845C78.3198 171.845 72.9508 167.043 72.9508 164.675C72.9508 162.729 73.0408 162.736 76.7008 164.928C78.7638 166.164 81.2278 167.836 82.1768 168.644ZM51.7008 172.925C49.1688 174.4 46.9508 179.208 46.9508 183.223C46.9508 185.788 47.6418 187.243 49.5858 188.772C53.0808 191.521 56.5278 191.386 63.4258 188.228C68.2008 186.042 69.5508 185.797 71.6248 186.742C75.1188 188.334 73.9748 190.388 69.7318 190.141C66.8118 189.971 66.0278 190.38 65.0168 192.6C63.9738 194.888 64.0598 195.452 65.6268 196.599C66.6348 197.336 69.2258 197.802 71.4178 197.639C74.6548 197.399 75.8058 196.719 77.6678 193.947C82.0338 187.449 79.8578 181.452 72.1618 178.769C69.3518 177.789 68.1608 178.026 62.4308 180.708C58.8388 182.388 55.2148 183.5 54.3768 183.178C52.1218 182.313 53.0998 179.29 55.5268 179.624C58.2618 180.001 61.7528 173.367 59.3118 172.43C57.0358 171.557 53.6748 171.775 51.7008 172.925ZM37.1708 206.075L36.3338 209.305L49.3928 213.336C58.4148 216.121 62.4508 217.823 62.4508 218.842C62.4508 221.367 59.4568 221.09 47.2738 217.439C40.7928 215.496 35.2008 214.23 34.8488 214.626C34.4968 215.021 33.9228 216.562 33.5718 218.05C32.9458 220.712 33.0898 220.802 42.6928 223.751C59.1398 228.802 61.8688 229.386 63.6758 228.247C66.6978 226.341 67.4938 224.121 66.2948 220.946C65.3858 218.538 65.4338 218.093 66.5528 218.522C67.9328 219.052 70.3378 214.507 69.6968 212.582C69.3958 211.679 41.8618 202.893 39.2298 202.86C38.5578 202.852 37.6318 204.298 37.1708 206.075ZM32.0068 229.789C29.5018 232.294 28.3728 238.281 29.8108 241.436C31.3078 244.722 35.7418 246.788 37.0068 244.788C38.4188 242.557 38.1158 239.122 36.4508 238.483C35.6258 238.167 34.9508 237.19 34.9508 236.313C34.9508 235.116 35.7618 234.796 38.1988 235.032C41.1928 235.32 41.5268 235.716 42.4488 240.069C43.8258 246.561 46.3778 248.827 53.0918 249.52C57.4298 249.968 58.9188 249.734 60.2588 248.394C62.4378 246.215 62.4148 243.029 60.2008 240.517C58.5128 238.601 58.5288 238.551 60.6748 239.087C62.5748 239.563 62.9918 239.143 63.5448 236.198C63.8998 234.302 64.0248 232.617 63.8208 232.452C62.8898 231.698 41.0418 227.844 37.7008 227.844C35.3208 227.845 33.2408 228.555 32.0068 229.789ZM53.2008 237.898C55.3358 238.49 56.9508 239.565 56.9508 240.392C56.9508 242.707 50.9048 242.613 47.2008 240.24C42.3958 237.162 45.7868 235.839 53.2008 237.898ZM33.3058 250.651C29.1278 251.056 26.8208 253.815 26.2228 259.121C25.4748 265.764 28.3968 268.549 37.4508 269.821C51.2488 271.761 56.7248 270.831 58.8408 266.188C61.3228 260.741 59.3728 254.536 54.6638 252.895C49.4288 251.07 48.2098 251.503 47.7608 255.345C47.4118 258.336 47.6508 258.847 49.4018 258.86C52.4128 258.883 54.3288 260.417 53.6278 262.244C52.9928 263.9 49.3158 264.317 45.1658 263.205C43.0178 262.63 42.9188 262.246 43.5318 256.835L44.1828 251.077L40.3168 250.711C38.1908 250.51 35.0358 250.482 33.3058 250.651ZM39.9508 260.456C39.9508 262.93 39.7528 263.031 36.2008 262.378C29.3458 261.119 29.2078 257.845 36.0098 257.845C39.5918 257.845 39.9508 258.083 39.9508 260.456ZM45.9508 287.738C45.9508 291.765 46.0188 291.845 49.4508 291.845C52.2248 291.845 52.9508 292.24 52.9508 293.748C52.9508 295.325 52.0768 295.712 47.8668 295.998C45.0708 296.189 42.5958 296.158 42.3668 295.928C42.1378 295.699 41.9508 293.112 41.9508 290.178V284.845H36.8848C26.7818 284.845 22.9368 289.77 26.0558 298.717C27.5898 303.117 29.5228 303.846 39.6348 303.839C54.4688 303.83 58.9508 301.449 58.9508 293.577C58.9508 289.046 55.4038 284.845 51.5778 284.845C50.2228 284.845 48.4028 284.572 47.5328 284.238C46.2488 283.745 45.9508 284.404 45.9508 287.738ZM38.9508 294.345C38.9508 296.584 38.5438 296.845 35.0578 296.845C32.5508 296.845 30.9638 296.32 30.5998 295.371C29.9018 293.555 32.5278 291.916 36.2008 291.875C38.4758 291.85 38.9508 292.277 38.9508 294.345ZM44.4508 307.023C37.3008 308.096 30.4378 309.63 29.2008 310.433C26.3208 312.299 26.1318 317.317 28.8768 319.031C30.5798 320.094 30.6238 320.364 29.2578 321.362C28.1218 322.193 27.9018 323.346 28.4248 325.727C29.0518 328.579 29.4508 328.901 31.7928 328.441C33.2548 328.153 39.6258 327.215 45.9508 326.355C62.8548 324.057 62.0018 324.378 61.2798 320.583C60.9408 318.802 60.5678 317.222 60.4508 317.072C60.3348 316.922 55.6768 317.485 50.1018 318.322C37.1418 320.269 32.9508 320.289 32.9508 318.404C32.9508 316.224 33.8718 315.94 46.6338 314.179C53.1328 313.282 58.8338 312.209 59.3018 311.795C60.2478 310.959 59.1808 304.779 58.1218 304.958C57.7528 305.02 51.6008 305.95 44.4508 307.023ZM44.6658 330.611L29.8808 334.248L30.5328 337.297C30.8908 338.973 31.3578 340.533 31.5688 340.763C31.7798 340.992 36.3398 340.132 41.7018 338.851C47.0638 337.57 53.1808 336.318 55.2958 336.069C58.6298 335.677 59.0938 335.865 58.7858 337.481C58.4458 339.265 55.1768 340.357 35.6298 345.217C33.0588 345.857 32.8698 346.205 33.4958 349.132C33.8748 350.899 34.2908 352.466 34.4208 352.615C34.8608 353.117 60.0688 346.852 62.2678 345.694C66.8398 343.288 67.2528 338.983 63.2008 335.96C60.9228 334.26 60.7708 333.903 62.3178 333.877C63.7608 333.852 64.0468 333.335 63.5808 331.595C63.2498 330.357 62.9718 328.783 62.9648 328.095C62.9448 326.306 61.1788 326.548 44.6658 330.611ZM59.4508 366.398L48.4508 370.762L46.2488 368.303C44.3208 366.151 43.7288 365.989 41.5068 367.002C39.5338 367.9 39.2158 368.459 40.0808 369.502C40.6938 370.241 41.8158 370.845 42.5728 370.845C43.3308 370.845 43.9508 371.295 43.9508 371.845C43.9508 372.395 43.4518 372.845 42.8428 372.845C41.6388 372.845 42.4658 377.703 43.9248 379.199C44.5838 379.873 73.3208 369.718 74.8358 368.276C75.6038 367.543 72.6768 361.848 71.5798 361.939C70.9588 361.991 65.5008 363.998 59.4508 366.398ZM60.7488 378.112L46.0458 385.345L47.4488 388.592L48.8518 391.84L56.1518 388.482C60.1658 386.636 65.5408 384.096 68.0948 382.837C72.5928 380.621 75.9508 380.635 75.9508 382.87C75.9508 383.469 70.3488 386.666 63.5028 389.976L51.0538 395.994L52.6268 399.291L54.1988 402.589L64.4788 397.74C78.1128 391.309 81.7378 389.091 82.4898 386.723C83.2338 384.38 80.5558 379.845 78.4278 379.845C76.6958 379.845 76.4358 378.183 78.0828 377.634C78.8638 377.374 78.7008 376.262 77.5568 374.051C76.6458 372.288 75.7988 370.853 75.6748 370.862C75.5518 370.872 68.8348 374.134 60.7488 378.112ZM79.3438 393.823C78.1848 394.292 74.0728 396.703 70.2048 399.182C59.7188 405.904 58.0528 409.22 61.9518 415.615C64.7728 420.241 68.0888 421.558 72.7088 419.888C78.0928 417.941 89.6068 410.3 91.4918 407.422C93.6268 404.164 92.6858 399.843 88.9757 395.872C86.1047 392.799 83.3368 392.21 79.3438 393.823ZM85.9508 401.741C85.9508 403.906 71.9258 413.189 68.5078 413.286C64.2538 413.408 66.7128 410.276 74.9028 405.143C84.0538 399.407 85.9508 398.823 85.9508 401.741ZM84.8738 417.095C74.3538 425.064 74.4928 424.941 73.1098 427.538C71.6718 430.237 73.2967 434.503 76.1027 435.393C77.1187 435.716 77.9508 436.78 77.9508 437.757C77.9508 439.492 80.8578 442.845 82.3618 442.845C82.9678 442.845 110.631 422.275 113.126 419.969C113.498 419.626 112.753 418.041 111.471 416.448L109.141 413.55L106.411 415.698C103.066 418.329 101.951 418.405 101.951 416C101.951 413.443 98.8047 410.845 95.7087 410.845C94.0847 410.845 90.0568 413.168 84.8738 417.095ZM98.5638 419.028C99.8158 421.054 83.0698 434.655 80.9428 433.34C78.6628 431.931 80.3948 429.651 88.1018 423.913C96.7458 417.478 97.4138 417.166 98.5638 419.028Z" fill="#D6F9FE"/>
<circle cx="280" cy="280" r="196" fill="#25C0DF"/>
<path fill-rule="evenodd" clip-rule="evenodd" d="M156.053 197.979C165.141 191.965 177.88 191.343 187.972 196.418C193.981 199.44 196.865 202.985 199.886 211.059C203.209 219.941 204 230.451 204 265.746C204 312.895 202.566 324.307 195.425 333.974C190.248 340.981 183.749 343.753 172.407 343.784C164.848 343.805 163.034 343.444 157.884 340.892L152 337.975V371.634H115V194.634H152V200.662L156.053 197.979ZM167.503 232.89C166.599 223.158 163.098 219.349 157.206 221.69C152.321 223.63 152 226.527 152 268.634C152 311.154 152.29 313.652 157.452 315.615C160.947 316.944 164.75 315.334 166.225 311.901C167.588 308.726 168.621 244.924 167.503 232.89Z" fill="#A3D6E0"/>
<path d="M267 229V178V127H238.5H210V269.516V412.031L238.25 411.766L266.5 411.5L266.757 347.25L267.015 283H280H292.985L293.243 347.25L293.5 411.5H321.5H349.5L349.753 269.25L350.007 127H321.503H293V178V229H280H267Z" fill="#D6F9FE"/>
<path d="M430.044 277.784C444.799 244.904 445.917 240.847 445.917 220.186V205H401.886C364.75 205 357.769 205.223 357.309 206.422C357.009 207.203 356.91 214.516 357.09 222.672L357.417 237.5L382.07 237.767L406.723 238.035L399.732 256.267C386.184 291.598 384.686 295.632 379.78 310C371.634 333.855 366.324 358.113 365.66 374.5L365.417 380.5H384.917H404.417L405.177 374C406.966 358.71 409.2 344.745 411.576 334C414.999 318.524 423.842 291.605 430.044 277.784Z" fill="#A3D6E0"/>
</svg>
